<svg xmlns="http://www.w3.org/2000/svg" width="1500px" height="700px">
<line x1="100" y1="133.333" x2="100" y2="200" stroke="#000000" stroke-width="5" stroke-linecap="square" />
<line x1="100" y1="200" x2="300" y2="200" stroke="#000000" stroke-width="5" stroke-linecap="square" />
<line x1="300" y1="200" x2="300" y2="133.333" stroke="#000000" stroke-width="5" stroke-linecap="square" />
<line x1="300" y1="133.333" x2="100" y2="133.333" stroke="#000000" stroke-width="5" stroke-linecap="square" />
<polygon points="100,133.333 100,200 300,200 300,133.333" fill="#FF00FF" />
<line x1="270" y1="100" x2="270" y2="133.333" stroke="#000000" stroke-width="5" stroke-linecap="square" />
<line x1="270" y1="133.333" x2="290" y2="133.333" stroke="#000000" stroke-width="5" stroke-linecap="square" />
<line x1="290" y1="133.333" x2="290" y2="100" stroke="#000000" stroke-width="5" stroke-linecap="square" />
<line x1="290" y1="100" x2="270" y2="100" stroke="#000000" stroke-width="5" stroke-linecap="square" />
<polygon points="270,100 270,133.333 290,133.333 290,100" fill="#FF00FF" />
<line x1="100" y1="133.333" x2="300" y2="133.333" stroke="#000000" stroke-width="5" stroke-linecap="square" />
<line x1="300" y1="133.333" x2="200" y2="100" stroke="#000000" stroke-width="5" stroke-linecap="square" />
<line x1="200" y1="100" x2="100" y2="133.333" stroke="#000000" stroke-width="5" stroke-linecap="square" />
<polygon points="100,133.333 300,133.333 200,100" fill="#FF00FF" />
</svg>
